<svg xmlns="http://www.w3.org/2000/svg" viewBox="0 0 529.431 356.678">
    <defs>
        <style>
            .cls-1{clip-path:url(#clip-path)}.cls-2{fill:##379EA7}
        </style>
        <clipPath id="clip-path">
            <path id="Retângulo_1546" d="M0 0h529.431v356.678H0z" data-name="Retângulo 1546"/>
        </clipPath>
    </defs>
    <g id="Logo-hubfintech-branco" class="cls-1">
        <g id="Grupo_6975" data-name="Grupo 6975" transform="translate(58.316 52.971)">
            <path id="Caminho_127" d="M511.472 344.747s-3.779 1.809-17.9 2.229c-7.269.085-13.8-.527-17.782-7.61a17.6 17.6 0 0 1-1.967-8.407c.009-15.086 0-44.463 0-44.463a19.779 19.779 0 0 0-3.4-10.157c-2.372-2.807-8.87-4.34-16.572-4.053a50.166 50.166 0 0 0-17.664 4.162l.036 68.369s-6.422 2.462-16.548 2.158-20.466-1.687-21.083-17c0-15.538-.037-53.18-.037-53.18V199.03a79.3 79.3 0 0 1 18.476-2.084c9.2.231 18.656.975 19.155 15.947-.014 15.065 0 25.906 0 25.906a91.478 91.478 0 0 1 26.414-4.169c14.4-.042 48.78 4.883 48.854 46.089.014 6.881.018 64.028.018 64.028z" class="cls-2" data-name="Caminho 127" transform="translate(-398.562 -196.93)"/>
            <path id="Caminho_128" d="M688.769 277.01a82.522 82.522 0 0 1 18.423-2.1c8.988.2 18.577.48 19.095 17.043v50.139s1.573 16.094 21.3 15.367a59.153 59.153 0 0 0 16.219-2.535v-77.917a47.943 47.943 0 0 1 15.48-2.09c9.129.169 21.776.309 22 16.839l.023 70.519s.7 6.5-6.3 12.759c-7.374 6.6-23.37 12.712-48.572 12.416-48.465-.567-56.852-26.587-57.523-43.664-.153-17.126-.145-66.776-.145-66.776z" class="cls-2" data-name="Caminho 128" transform="translate(-538.547 -237.18)"/>
            <path id="Subtração_2" d="M52.7 150.137c-.6 0-1.194-.008-1.775-.022-14.367-.371-26.675-3.505-36.581-9.315a29.757 29.757 0 0 1-7.613-6.361 30.48 30.48 0 0 1-4.331-6.715 27.343 27.343 0 0 1-2.4-7.477V2.135A71.763 71.763 0 0 1 17.063 0h.565a49.8 49.8 0 0 1 7.035.46A17.645 17.645 0 0 1 30.8 2.444a11.518 11.518 0 0 1 4.5 4.606 20.157 20.157 0 0 1 2.132 8.331c.013 14.036 0 24.514 0 24.616a.032.032 0 0 0 .013 0c.389-.1 2.486-.656 5.857-1.2a100.483 100.483 0 0 1 15.549-1.237h.143a54.91 54.91 0 0 1 16.156 2.463 68.172 68.172 0 0 1 9.885 3.888 50.043 50.043 0 0 1 9.934 6.389 43.629 43.629 0 0 1 8.7 9.8 49.9 49.9 0 0 1 6.181 14.134 79.675 79.675 0 0 1 2.45 18.056c-.224 12.137-1.6 18.113-4.062 24.895a44.855 44.855 0 0 1-10.488 16.589 50.444 50.444 0 0 1-14.726 10.056 68.436 68.436 0 0 1-16 4.974 79.672 79.672 0 0 1-14.32 1.333zm.043-82.523h-.353l-.841.006h-.014a24.493 24.493 0 0 0-6.726.773 40.493 40.493 0 0 0-7.389 2.587l.01 46.236a18.936 18.936 0 0 0 3.783 1.622A36.075 36.075 0 0 0 52.2 120.49a25.057 25.057 0 0 0 12.523-3.19 18.349 18.349 0 0 0 6.739-7.166 27.652 27.652 0 0 0 2.774-8.528 52.373 52.373 0 0 0 .629-7.277 45.223 45.223 0 0 0-.856-9.421 25.877 25.877 0 0 0-2.209-6.455 20.254 20.254 0 0 0-5.825-6.9 21.311 21.311 0 0 0-7.387-3.3 25.141 25.141 0 0 0-5.842-.639z" class="cls-2" data-name="Subtração 2" transform="translate(300.486 .146)"/>
            <g id="Grupo_6974" data-name="Grupo 6974" transform="translate(0 201.77)">
                <path id="Caminho_7248" d="M1195.974 222.552v-2.694s.071-3.65 1.941-5.666a9.05 9.05 0 0 1 4.6-2.478s3.008-.323 2.509-3.174-3.707-2.29-3.707-2.29a10.435 10.435 0 0 0-6.475 2.594c-2.788 2.6-3.917 5.695-4.385 9.747l-.233 3.963h-4.434a2.859 2.859 0 0 0-2.374 2.638 2.718 2.718 0 0 0 2.117 2.661h4.69v22.412s-.118 3.34 2.886 3.283 2.86-3.283 2.86-3.283v-22.413h5.346a2.65 2.65 0 1 0 0-5.3z" class="cls-2" data-name="Caminho 7248" transform="translate(-1183.42 -205.774)"/>
                <path id="Caminho_7249" d="M1249.741 255.518V226.36a2.814 2.814 0 0 0-2.8-2.874 2.893 2.893 0 0 0-2.927 2.838v29.194s-.247 3.474 2.835 3.485 2.892-3.485 2.892-3.485z" class="cls-2" data-name="Caminho 7249" transform="translate(-1184.324 -211.205)"/>
                <path id="Caminho_7250" d="M3.52.576a3.288 3.288 0 0 1 3.363 3.367 3.234 3.234 0 0 1-3.41 3.21 3.154 3.154 0 0 1-3.24-3.287A3.193 3.193 0 0 1 3.52.576z" class="cls-2" data-name="Caminho 7250" transform="translate(58.921 -.575)"/>
                <path id="Caminho_7251" d="M1023.925 224.951l.086 1.215-.086 29.777s.088 3.094 2.978 2.986a2.838 2.838 0 0 0 2.8-2.986v-13.734a13 13 0 0 1 12.6-13.234c11.976.516 11.562 12.7 11.562 12.7v13.562s-.45 3.6 2.776 3.654 2.842-3.654 2.842-3.654l.046-14.73s-.425-15.8-15.886-17.009a17.821 17.821 0 0 0-14.8 7.208 33.365 33.365 0 0 0-.688-4.73c-.463-1.708-1.65-2.911-3.231-2.491-.886.303-.999 1.466-.999 1.466z" class="cls-2" data-name="Caminho 7251" transform="translate(-917.745 -211.181)"/>
                <path id="Caminho_7252" d="M1288.367 219.551v-8.566s-.243-3.326 2.845-3.332 2.881 3.347 2.881 3.347v8.553h4.878a3.481 3.481 0 0 1 1.528.319 2.774 2.774 0 0 1 1.5 2.4 2.838 2.838 0 0 1-1.312 2.484 3.79 3.79 0 0 1-1.719.445l-4.878-.016v25.659a3.3 3.3 0 0 1-.79 2.24 2.9 2.9 0 0 1-4.232 0 3.564 3.564 0 0 1-.736-2.24l.032-25.659-4.724.014a3.2 3.2 0 0 1-1.938-.66 3.1 3.1 0 0 1-1.015-2.152 2.911 2.911 0 0 1 .855-2.09 3.4 3.4 0 0 1 2.1-.735z" class="cls-2" data-name="Caminho 7252" transform="translate(-1101.072 -206.065)"/>
                <path id="Exclusão_10" d="M17.412 35.51a18.335 18.335 0 0 1-2.227-.12 16.6 16.6 0 0 1-3.327-.891 19.354 19.354 0 0 1-6.706-4.162A17.535 17.535 0 0 1 .915 23.4a18.192 18.192 0 0 1-.858-3.67A20.551 20.551 0 0 1 .3 14.686a19.02 19.02 0 0 1 1.375-4.641A14.745 14.745 0 0 1 4.834 5.47a19.163 19.163 0 0 1 4.21-3.1A19.74 19.74 0 0 1 13 .756a17.144 17.144 0 0 1 4.47-.725h.038s.307-.031.8-.031a18.3 18.3 0 0 1 12.484 5.226A17.252 17.252 0 0 1 33.728 9.5a18.2 18.2 0 0 1 1.4 4.051 17.575 17.575 0 0 1 .406 4.737 1.374 1.374 0 0 1-1.034 1.224 4.093 4.093 0 0 1-1.335.218 1.1 1.1 0 0 1-.128 0H5.93a9.671 9.671 0 0 0 .279 1.97 10.7 10.7 0 0 0 1.936 4.079 12.826 12.826 0 0 0 5.72 4.2 11.659 11.659 0 0 0 3.639.718h.071a16.074 16.074 0 0 0 3.361-.447 9.218 9.218 0 0 0 4.256-2.057 3.339 3.339 0 0 1 2.313-1.042 3.268 3.268 0 0 1 2.061.8 3.074 3.074 0 0 1 .593 1.18 2.619 2.619 0 0 1-.882 2.6 15.978 15.978 0 0 1-6.332 3.11 22.938 22.938 0 0 1-5.533.669zm.82-30.694a10.347 10.347 0 0 0-2.319.239 11.177 11.177 0 0 0-2.727.859 12.219 12.219 0 0 0-4.979 4.05 11.841 11.841 0 0 0-2.29 5.758h23.84a9.571 9.571 0 0 0-.509-2.775 12.239 12.239 0 0 0-3.776-5.54 11.08 11.08 0 0 0-7.24-2.592z" class="cls-2" data-name="Exclusão 10" transform="translate(234.334 12.399)"/>
                <path id="Caminho_7255" d="M10598.182-18187.648a12.246 12.246 0 0 1 9.776-12.193c6.087-1.23 11.4 2.734 11.4 2.734a2.483 2.483 0 0 0 1.908.7 2.467 2.467 0 0 0 1.781-.975c1.818-2.068-.71-4.295-.71-4.295s-5.365-5.377-15.387-3.871c-14.895 3.465-14.71 17.664-14.71 17.664a18.213 18.213 0 0 0 11.221 16.8 19.622 19.622 0 0 0 17.948-2.148s3.637-2.369 1.964-4.945c-2.146-2.877-5.027 0-5.027 0s-5.232 4.885-13.5 1.318c-6.783-3.37-6.664-10.789-6.664-10.789z" class="cls-2" data-name="Caminho 7255" transform="translate(-10285.567 18218.117)"/>
                <path id="Caminho_7262" d="M11020.936-18229.9v-40.33-.486a3.045 3.045 0 0 1 .617-1.82 2.712 2.712 0 0 1 2.209-1.084 2.941 2.941 0 0 1 2.379 1.084 2.844 2.844 0 0 1 .627 1.76c-.01.3 0 .551 0 .551l.006 16.137a13.943 13.943 0 0 1 5.242-5.918c3.691-2.8 11.592-4.506 18.428.885a18.013 18.013 0 0 1 6.334 11.477c.3 2.631.2 4.342.2 17.289a4.655 4.655 0 0 1-.59 2.643 3.387 3.387 0 0 1-2.295 1.127 3.276 3.276 0 0 1-2.234-1.127 5.129 5.129 0 0 1-.674-2.643v-12.676s.045-1.129 0-2.562a17.963 17.963 0 0 0-.707-3.455 12.108 12.108 0 0 0-3.129-4.93 11.491 11.491 0 0 0-9.424-2.947 13.148 13.148 0 0 0-8.475 5.457 14.852 14.852 0 0 0-2.672 9.35l-.012 12.219a3.177 3.177 0 0 1-.717 2.287 3.026 3.026 0 0 1-2.3 1.016 3.04 3.04 0 0 1-2.02-.869 4.2 4.2 0 0 1-.793-2.435z" class="cls-2" data-name="Caminho 7262" transform="translate(-10644.207 18274.852)"/>
            </g>
        </g>
    </g>
</svg>
